<svg
  width="520"
  height="120"
  viewBox="0 0 520 120"
  fill="none"
  xmlns="http://www.w3.org/2000/svg"
>
  <!-- Stylized E mark + "venly" wordmark (#2CB5B5) -->
  <g transform="translate(6, 10) scale(0.19)">
    <path
      d="M18 461Q4 438 4 402V108Q4 44 65 14Q82 6 140 6H221L33 463Q26 478 18 461Z"
      fill="#2CB5B5"
    />
    <path d="M268 6H510Q492 70 452 101Q410 132 356 132H226L268 6Z" fill="#2CB5B5" />
    <path d="M220 184H438Q420 248 382 280Q344 312 286 312H170L220 184Z" fill="#2CB5B5" />
    <path d="M112 395H496Q480 456 436 492Q394 512 330 512H68L112 395Z" fill="#2CB5B5" />
  </g>
  <text
    x="118"
    y="78"
    fill="#2CB5B5"
    font-family="'Roboto', system-ui, -apple-system, sans-serif"
    font-size="58"
    font-weight="600"
    letter-spacing="-0.02em"
  >
    venly
  </text>
</svg>
